<svg xmlns="http://www.w3.org/2000/svg" viewBox="0 0 1280 720" width="1280" height="720">
  <defs>
    <linearGradient id="accentLine24" x1="0%" y1="0%" x2="100%" y2="0%">
      <stop offset="0%" stop-color="#246BFE" />
      <stop offset="100%" stop-color="#518FEC" stop-opacity="0.15" />
    </linearGradient>
  </defs>

  <rect width="1280" height="720" fill="#FFFFFF" />

  <g id="header">
    <text x="60" y="60" font-family="&quot;Microsoft YaHei&quot;, Arial, sans-serif" font-size="14" font-weight="600" fill="#0052A6" letter-spacing="3">收束 · 四句话</text>
    <text x="60" y="100" font-family="&quot;Microsoft YaHei&quot;, Arial, sans-serif" font-size="30" font-weight="bold" fill="#25364A">四句话收束全场</text>
    <path fill="url(#accentLine24)" d="M62,114 H298 A2,2 0 0 1 300,116 V116 A2,2 0 0 1 298,118 H62 A2,2 0 0 1 60,116 V116 A2,2 0 0 1 62,114 Z" />
    <text x="60" y="146" font-family="&quot;Microsoft YaHei&quot;, Arial, sans-serif" font-size="16" fill="#5E6A78">潜力、真相、路径、人才——一句话一个判断</text>
  </g>

  
  <g id="point-1">
    <circle cx="120" cy="210" r="28" fill="#0052A6" fill-opacity="0.12" />
    
  <g transform="translate(96.0, 186.0) scale(2.0)" fill="none" stroke="#0052A6" stroke-width="2">
    <path d="M11 12a1 1 0 1 0 2 0a1 1 0 1 0 -2 0" />
    <path d="M7 12a5 5 0 1 0 10 0a5 5 0 1 0 -10 0" />
    <path d="M3 12a9 9 0 1 0 18 0a9 9 0 1 0 -18 0" />
  </g>
    <text x="178" y="200" font-family="&quot;Microsoft YaHei&quot;, Arial, sans-serif" font-size="24" font-weight="bold" fill="#0052A6">潜力</text>
    <text x="178" y="232" font-family="&quot;Microsoft YaHei&quot;, Arial, sans-serif" font-size="17" fill="#5E6A78">AI 落地的最后一公里，有真实的高销毛逻辑</text>
    <text x="1190" y="230" text-anchor="end" font-family="&quot;Microsoft YaHei&quot;, Arial, sans-serif" font-size="58" font-weight="bold" fill="#0052A6" fill-opacity="0.10">01</text>
    <line x1="60" y1="262" x2="1220" y2="262" stroke="#E3E9F2" stroke-width="1" />
  </g>

  
  <g id="point-2">
    <circle cx="120" cy="325" r="28" fill="#F59E0B" fill-opacity="0.14" />
    
  <g transform="translate(96.0, 301.0) scale(2.0)" fill="none" stroke="#F59E0B" stroke-width="2">
    <path d="M12 9v4" />
    <path d="M10.363 3.591l-8.106 13.534a1.914 1.914 0 0 0 1.636 2.871h16.214a1.914 1.914 0 0 0 1.636 -2.87l-8.106 -13.536a1.914 1.914 0 0 0 -3.274 0" />
    <path d="M12 16h.01" />
  </g>
    <text x="178" y="315" font-family="&quot;Microsoft YaHei&quot;, Arial, sans-serif" font-size="24" font-weight="bold" fill="#F59E0B">真相</text>
    <text x="178" y="347" font-family="&quot;Microsoft YaHei&quot;, Arial, sans-serif" font-size="17" fill="#5E6A78">新兴行业，国内国外不同，难在人、周期长——别让它变成经营压力</text>
    <text x="1190" y="345" text-anchor="end" font-family="&quot;Microsoft YaHei&quot;, Arial, sans-serif" font-size="58" font-weight="bold" fill="#F59E0B" fill-opacity="0.12">02</text>
    <line x1="60" y1="377" x2="1220" y2="377" stroke="#E3E9F2" stroke-width="1" />
  </g>

  
  <g id="point-3">
    <circle cx="120" cy="440" r="28" fill="#246BFE" fill-opacity="0.12" />
    
  <g transform="translate(96.0, 416.0) scale(2.0)" fill="none" stroke="#246BFE" stroke-width="2">
    <path d="M3 19a2 2 0 1 0 4 0a2 2 0 0 0 -4 0" />
    <path d="M19 7a2 2 0 1 0 0 -4a2 2 0 0 0 0 4" />
    <path d="M11 19h5.5a3.5 3.5 0 0 0 0 -7h-8a3.5 3.5 0 0 1 0 -7h4.5" />
  </g>
    <text x="178" y="430" font-family="&quot;Microsoft YaHei&quot;, Arial, sans-serif" font-size="24" font-weight="bold" fill="#246BFE">路径</text>
    <text x="178" y="462" font-family="&quot;Microsoft YaHei&quot;, Arial, sans-serif" font-size="17" fill="#5E6A78">先验证、先沉淀、先打标杆——原厂打样、伙伴复制、先易后难</text>
    <text x="1190" y="460" text-anchor="end" font-family="&quot;Microsoft YaHei&quot;, Arial, sans-serif" font-size="58" font-weight="bold" fill="#246BFE" fill-opacity="0.10">03</text>
    <line x1="60" y1="492" x2="1220" y2="492" stroke="#E3E9F2" stroke-width="1" />
  </g>

  
  <g id="point-4">
    <circle cx="120" cy="555" r="28" fill="#0E9F6E" fill-opacity="0.14" />
    
  <g transform="translate(96.0, 531.0) scale(2.0)" fill="none" stroke="#0E9F6E" stroke-width="2">
    <path d="M5 7a4 4 0 1 0 8 0a4 4 0 1 0 -8 0" />
    <path d="M3 21v-2a4 4 0 0 1 4 -4h4a4 4 0 0 1 4 4v2" />
    <path d="M16 3.13a4 4 0 0 1 0 7.75" />
    <path d="M21 21v-2a4 4 0 0 0 -3 -3.85" />
  </g>
    <text x="178" y="545" font-family="&quot;Microsoft YaHei&quot;, Arial, sans-serif" font-size="24" font-weight="bold" fill="#0E9F6E">人才</text>
    <text x="178" y="577" font-family="&quot;Microsoft YaHei&quot;, Arial, sans-serif" font-size="17" fill="#5E6A78">人才策略跟着阶段走——从「把人当资源」到「把人当资产」，AI 不取代驾驭它的人</text>
    <text x="1190" y="575" text-anchor="end" font-family="&quot;Microsoft YaHei&quot;, Arial, sans-serif" font-size="58" font-weight="bold" fill="#0E9F6E" fill-opacity="0.12">04</text>
  </g>

  
  <g id="verdict">
    <path fill="#0052A6" d="M72,618 H1208 A12,12 0 0 1 1220,630 V658 A12,12 0 0 1 1208,670 H72 A12,12 0 0 1 60,658 V630 A12,12 0 0 1 72,618 Z" />
    <text x="640" y="651" text-anchor="middle" font-family="&quot;Microsoft YaHei&quot;, Arial, sans-serif" font-size="19" font-weight="bold" fill="#FFFFFF">FDE 值得战略投入 · 战略重视 · 节奏稳妥 · 人才优先</text>
  </g>

  <g id="footer">
    <text x="1220" y="690" text-anchor="end" font-family="&quot;Microsoft YaHei&quot;, Arial, sans-serif" font-size="11" fill="#6B7785">25 / 26</text>
  </g>
</svg>