<svg xmlns="http://www.w3.org/2000/svg" viewBox="0 0 1280 720" width="1280" height="720">
  <g id="background">
    <rect x="0" y="0" width="1280" height="720" fill="#FFFFFF" />
  </g>

  <g id="page-title">
    <path fill="#0052A6" d="M83,56 H133 A3,3 0 0 1 136,59 V59 A3,3 0 0 1 133,62 H83 A3,3 0 0 1 80,59 V59 A3,3 0 0 1 83,56 Z" />
    <circle cx="118" cy="92" r="14" fill="#518FEC" />
    <text x="118" y="98" font-size="12" font-weight="bold" fill="#FFFFFF" text-anchor="middle" font-family="Microsoft YaHei, Arial, sans-serif">S3</text>
    <text x="146" y="100" font-size="28" font-weight="bold" fill="#25364A" font-family="Microsoft YaHei, Arial, sans-serif">Agent 拿不到准确上下文,老找错代码、误解业务</text>
  </g>

  <g id="pain-section">
    <path fill="#F4F7FC" d="M94,136 H1186 A14,14 0 0 1 1200,150 V254 A14,14 0 0 1 1186,268 H94 A14,14 0 0 1 80,254 V150 A14,14 0 0 1 94,136 Z" />
    <path fill="#F59E0B" d="M83,136 H83 A3,3 0 0 1 86,139 V265 A3,3 0 0 1 83,268 H83 A3,3 0 0 1 80,265 V139 A3,3 0 0 1 83,136 Z" />
    
  <g transform="translate(110.0, 158.0) scale(1.25)" fill="none" stroke="#F59E0B" stroke-width="2">
    <path d="M12 9v4" />
    <path d="M10.363 3.591l-8.106 13.534a1.914 1.914 0 0 0 1.636 2.871h16.214a1.914 1.914 0 0 0 1.636 -2.87l-8.106 -13.536a1.914 1.914 0 0 0 -3.274 0" />
    <path d="M12 16h.01" />
  </g>
    <text x="150" y="180" font-size="18" font-weight="bold" fill="#F59E0B" font-family="Microsoft YaHei, Arial, sans-serif">痛点:知识散落,Agent 只能"猜"</text>
    <text x="150" y="212" font-size="14" fill="#25364A" font-family="Microsoft YaHei, Arial, sans-serif">需求在 Confluence · 设计在 Figma · 代码在 Git · 测试在 TestRail · 契约在 Swagger · 规则在文档</text>
    <text x="150" y="238" font-size="14" fill="#25364A" font-family="Microsoft YaHei, Arial, sans-serif">→ Agent 检索只能靠关键词/向量相似度</text>
    <text x="150" y="260" font-size="14" font-weight="bold" fill="#F59E0B" font-family="Microsoft YaHei, Arial, sans-serif">→ 找错上下文、误解概念、遗漏约束 → 生成看似合理实则错误的方案</text>
  </g>

  <g id="layer-label">
    <text x="80" y="316" font-size="16" font-weight="bold" fill="#518FEC" font-family="Microsoft YaHei, Arial, sans-serif">三层资产结构:不是堆文件,是用本体网络把资产连起来</text>
  </g>

  <g id="layer-3">
    <path fill="#518FEC" d="M92,340 H1188 A12,12 0 0 1 1200,352 V412 A12,12 0 0 1 1188,424 H92 A12,12 0 0 1 80,412 V352 A12,12 0 0 1 92,340 Z" />
    
  <g transform="translate(104.0, 364.0) scale(1.1666666666666667)" fill="none" stroke="#FFFFFF" stroke-width="2">
    <path d="M13 3l0 7l6 0l-8 11l0 -7l-6 0l8 -11" />
  </g>
    <text x="144" y="370" font-size="14" fill="#DCE6FB" font-family="Microsoft YaHei, Arial, sans-serif">第三层 · 能力资产</text>
    <text x="144" y="400" font-size="18" font-weight="bold" fill="#FFFFFF" font-family="Microsoft YaHei, Arial, sans-serif">Agent 记忆 · Skill · Prompt · 工具调用模板 · 评测集 · 专家规则</text>
  </g>

  <g id="layer-2">
    <path fill="#0052A6" d="M92,436 H1188 A12,12 0 0 1 1200,448 V508 A12,12 0 0 1 1188,520 H92 A12,12 0 0 1 80,508 V448 A12,12 0 0 1 92,436 Z" />
    
  <g transform="translate(104.0, 460.0) scale(1.1666666666666667)" fill="none" stroke="#FFFFFF" stroke-width="2">
    <path d="M6 9a6 6 0 1 0 12 0a6 6 0 0 0 -12 0" />
    <path d="M12 3c1.333 .333 2 2.333 2 6s-.667 5.667 -2 6" />
    <path d="M12 3c-1.333 .333 -2 2.333 -2 6s.667 5.667 2 6" />
    <path d="M6 9h12" />
    <path d="M3 20h7" />
    <path d="M14 20h7" />
    <path d="M10 20a2 2 0 1 0 4 0a2 2 0 0 0 -4 0" />
    <path d="M12 15v3" />
  </g>
    <text x="144" y="466" font-size="14" fill="#DCE6FB" font-family="Microsoft YaHei, Arial, sans-serif">第二层 · 语义连接层</text>
    <text x="144" y="496" font-size="18" font-weight="bold" fill="#FFFFFF" font-family="Microsoft YaHei, Arial, sans-serif">本体网络 + 知识图谱:概念 · 系统 · 数据 · 规则 · 接口 · 测试 · 经验 全语义关联</text>
  </g>

  <g id="layer-1">
    <path fill="#0A2A5E" d="M92,532 H1188 A12,12 0 0 1 1200,544 V604 A12,12 0 0 1 1188,616 H92 A12,12 0 0 1 80,604 V544 A12,12 0 0 1 92,532 Z" />
    
  <g transform="translate(104.0, 556.0) scale(1.1666666666666667)" fill="none" stroke="#FFFFFF" stroke-width="2">
    <path d="M4 6a8 3 0 1 0 16 0a8 3 0 1 0 -16 0" />
    <path d="M4 6v6a8 3 0 0 0 16 0v-6" />
    <path d="M4 12v6a8 3 0 0 0 16 0v-6" />
  </g>
    <text x="144" y="562" font-size="14" fill="#8FA3C4" font-family="Microsoft YaHei, Arial, sans-serif">第一层 · 底层工程资产</text>
    <text x="144" y="592" font-size="18" font-weight="bold" fill="#FFFFFF" font-family="Microsoft YaHei, Arial, sans-serif">需求 · 设计 · 代码 · 测试 · 契约/API · 运行日志 · 评测集 · Agent 执行轨迹</text>
  </g>

  <g id="key-takeaway">
    <text x="640" y="652" font-size="14" font-weight="bold" fill="#0052A6" text-anchor="middle" font-family="Microsoft YaHei, Arial, sans-serif">Agent 不再靠关键词"猜",而是沿语义关系精确检索</text>
  </g>

  <g id="footer">
    <text x="80" y="688" font-size="12" fill="#6B7785" font-family="Microsoft YaHei, Arial, sans-serif">第四章 · S3 智能知识底座</text>
    <text x="1200" y="688" font-size="11" fill="#6B7785" text-anchor="end" font-family="Microsoft YaHei, Arial, sans-serif">19 / 30</text>
  </g>
</svg>