<svg xmlns="http://www.w3.org/2000/svg" viewBox="0 0 1280 720" width="1280" height="720">
  <g id="background">
    <rect x="0" y="0" width="1280" height="720" fill="#FFFFFF" />
  </g>

  <g id="page-title">
    <path fill="#0052A6" d="M83,56 H133 A3,3 0 0 1 136,59 V59 A3,3 0 0 1 133,62 H83 A3,3 0 0 1 80,59 V59 A3,3 0 0 1 83,56 Z" />
    <text x="80" y="100" font-size="28" font-weight="bold" fill="#25364A" font-family="Microsoft YaHei, Arial, sans-serif">四维价值 —— 效率 · 质量 · 成本 · 进化</text>
    <text x="80" y="128" font-size="15" fill="#6B7785" font-family="Microsoft YaHei, Arial, sans-serif">FarAI 研发流水线从四个维度,把个人提效升级为组织系统提效</text>
  </g>

  <g id="quadrant-efficiency">
    <path fill="#F4F7FC" d="M96,160 H619 A16,16 0 0 1 635,176 V376 A16,16 0 0 1 619,392 H96 A16,16 0 0 1 80,376 V176 A16,16 0 0 1 96,160 Z" />
    <path fill="#0052A6" d="M83,160 H83 A3,3 0 0 1 86,163 V389 A3,3 0 0 1 83,392 H83 A3,3 0 0 1 80,389 V163 A3,3 0 0 1 83,160 Z" />
    
  <g transform="translate(108.0, 184.0) scale(1.3333333333333333)" fill="none" stroke="#0052A6" stroke-width="2">
    <path d="M13 3l0 7l6 0l-8 11l0 -7l-6 0l8 -11" />
  </g>
    <text x="150" y="208" font-size="22" font-weight="bold" fill="#0052A6" font-family="Microsoft YaHei, Arial, sans-serif">效率</text>
    <text x="615" y="208" font-size="14" fill="#6B7785" text-anchor="end" font-family="Microsoft YaHei, Arial, sans-serif">速度类指标</text>
    <line x1="108" y1="232" x2="615" y2="232" stroke="#E3E9F2" stroke-width="1" />
    <text x="108" y="288" font-size="34" font-weight="bold" fill="#0052A6" font-family="Microsoft YaHei, Arial, sans-serif">↓40-50%</text>
    <text x="108" y="318" font-size="15" fill="#25364A" font-family="Microsoft YaHei, Arial, sans-serif">需求返工率(预估)</text>
    <text x="345" y="288" font-size="34" font-weight="bold" fill="#0052A6" font-family="Microsoft YaHei, Arial, sans-serif">↑3-5 倍</text>
    <text x="345" y="318" font-size="15" fill="#25364A" font-family="Microsoft YaHei, Arial, sans-serif">安全合并吞吐(预估)</text>
    <text x="108" y="368" font-size="13" fill="#6B7785" font-family="Microsoft YaHei, Arial, sans-serif">个人变快 → 小队/产品线/组织级系统提速</text>
  </g>

  <g id="quadrant-quality">
    <path fill="#F4F7FC" d="M671,160 H1184 A16,16 0 0 1 1200,176 V376 A16,16 0 0 1 1184,392 H671 A16,16 0 0 1 655,376 V176 A16,16 0 0 1 671,160 Z" />
    <path fill="#246BFE" d="M658,160 H658 A3,3 0 0 1 661,163 V389 A3,3 0 0 1 658,392 H658 A3,3 0 0 1 655,389 V163 A3,3 0 0 1 658,160 Z" />
    
  <g transform="translate(683.0, 184.0) scale(1.3333333333333333)" fill="none" stroke="#246BFE" stroke-width="2">
    <path d="M12 3a12 12 0 0 0 8.5 3a12 12 0 0 1 -8.5 15a12 12 0 0 1 -8.5 -15a12 12 0 0 0 8.5 -3" />
  </g>
    <text x="725" y="208" font-size="22" font-weight="bold" fill="#246BFE" font-family="Microsoft YaHei, Arial, sans-serif">质量</text>
    <text x="1180" y="208" font-size="14" fill="#6B7785" text-anchor="end" font-family="Microsoft YaHei, Arial, sans-serif">风险类指标</text>
    <line x1="683" y1="232" x2="1180" y2="232" stroke="#E3E9F2" stroke-width="1" />
    <text x="683" y="288" font-size="34" font-weight="bold" fill="#246BFE" font-family="Microsoft YaHei, Arial, sans-serif">↓40-60%</text>
    <text x="683" y="318" font-size="15" fill="#25364A" font-family="Microsoft YaHei, Arial, sans-serif">缺陷/返工率(预估)</text>
    <text x="920" y="288" font-size="34" font-weight="bold" fill="#246BFE" font-family="Microsoft YaHei, Arial, sans-serif">↓30-50%</text>
    <text x="920" y="318" font-size="15" fill="#25364A" font-family="Microsoft YaHei, Arial, sans-serif">高风险漏审(预估)</text>
    <text x="683" y="368" font-size="13" fill="#6B7785" font-family="Microsoft YaHei, Arial, sans-serif">Harness 安全网让 AI 改完即可验证</text>
  </g>

  <g id="quadrant-cost">
    <path fill="#F4F7FC" d="M96,404 H619 A16,16 0 0 1 635,420 V620 A16,16 0 0 1 619,636 H96 A16,16 0 0 1 80,620 V420 A16,16 0 0 1 96,404 Z" />
    <path fill="#518FEC" d="M83,404 H83 A3,3 0 0 1 86,407 V633 A3,3 0 0 1 83,636 H83 A3,3 0 0 1 80,633 V407 A3,3 0 0 1 83,404 Z" />
    
  <g transform="translate(108.0, 428.0) scale(1.3333333333333333)" fill="none" stroke="#518FEC" stroke-width="2">
    <path d="M7 15h-3a1 1 0 0 1 -1 -1v-8a1 1 0 0 1 1 -1h12a1 1 0 0 1 1 1v3" />
    <path d="M7 10a1 1 0 0 1 1 -1h12a1 1 0 0 1 1 1v8a1 1 0 0 1 -1 1h-12a1 1 0 0 1 -1 -1l0 -8" />
    <path d="M12 14a2 2 0 1 0 4 0a2 2 0 0 0 -4 0" />
  </g>
    <text x="150" y="452" font-size="22" font-weight="bold" fill="#518FEC" font-family="Microsoft YaHei, Arial, sans-serif">成本</text>
    <text x="615" y="452" font-size="14" fill="#6B7785" text-anchor="end" font-family="Microsoft YaHei, Arial, sans-serif">资源类指标</text>
    <line x1="108" y1="476" x2="615" y2="476" stroke="#E3E9F2" stroke-width="1" />
    <text x="108" y="532" font-size="28" font-weight="bold" fill="#518FEC" font-family="Microsoft YaHei, Arial, sans-serif">分钟级 → 秒级</text>
    <text x="108" y="562" font-size="15" fill="#25364A" font-family="Microsoft YaHei, Arial, sans-serif">上下文获取时效(预估)</text>
    <text x="345" y="532" font-size="28" font-weight="bold" fill="#518FEC" font-family="Microsoft YaHei, Arial, sans-serif">Token ROI</text>
    <text x="345" y="562" font-size="15" fill="#25364A" font-family="Microsoft YaHei, Arial, sans-serif">持续可视化(预估)</text>
    <text x="108" y="612" font-size="13" fill="#6B7785" font-family="Microsoft YaHei, Arial, sans-serif">AI FinOps 让"用了多少"升级为"带来什么收益"</text>
  </g>

  <g id="quadrant-evolution">
    <path fill="#F4F7FC" d="M671,404 H1184 A16,16 0 0 1 1200,420 V620 A16,16 0 0 1 1184,636 H671 A16,16 0 0 1 655,620 V420 A16,16 0 0 1 671,404 Z" />
    <path fill="#0E9F6E" d="M658,404 H658 A3,3 0 0 1 661,407 V633 A3,3 0 0 1 658,636 H658 A3,3 0 0 1 655,633 V407 A3,3 0 0 1 658,404 Z" />
    
  <g transform="translate(683.0, 428.0) scale(1.3333333333333333)" fill="none" stroke="#0E9F6E" stroke-width="2">
    <path d="M20 11a8.1 8.1 0 0 0 -15.5 -2m-.5 -4v4h4" />
    <path d="M4 13a8.1 8.1 0 0 0 15.5 2m.5 4v-4h-4" />
  </g>
    <text x="725" y="452" font-size="22" font-weight="bold" fill="#0E9F6E" font-family="Microsoft YaHei, Arial, sans-serif">进化</text>
    <text x="1180" y="452" font-size="14" fill="#6B7785" text-anchor="end" font-family="Microsoft YaHei, Arial, sans-serif">长期复利</text>
    <line x1="683" y1="476" x2="1180" y2="476" stroke="#E3E9F2" stroke-width="1" />
    <text x="683" y="532" font-size="34" font-weight="bold" fill="#0E9F6E" font-family="Microsoft YaHei, Arial, sans-serif">↑50%+</text>
    <text x="683" y="562" font-size="15" fill="#25364A" font-family="Microsoft YaHei, Arial, sans-serif">知识/资产复用率(预估)</text>
    <text x="920" y="532" font-size="20" font-weight="bold" fill="#0E9F6E" font-family="Microsoft YaHei, Arial, sans-serif">越用越准</text>
    <text x="920" y="562" font-size="15" fill="#25364A" font-family="Microsoft YaHei, Arial, sans-serif">组织经验成能力(预估)</text>
    <text x="683" y="612" font-size="13" fill="#6B7785" font-family="Microsoft YaHei, Arial, sans-serif">本体网络 + Agent 记忆 + 经验进化底座持续复利</text>
  </g>

  <g id="footer">
    <text x="80" y="688" font-size="11" fill="#6B7785" font-family="Microsoft YaHei, Arial, sans-serif">* 以上为预估值,可按实际业务量与代码库规模校准 · 第六章 · 价值实施</text>
    <text x="1200" y="688" font-size="11" fill="#6B7785" text-anchor="end" font-family="Microsoft YaHei, Arial, sans-serif">28 / 30</text>
  </g>
</svg>