<svg xmlns="http://www.w3.org/2000/svg" viewBox="0 0 1280 720" width="1280" height="720">
  <defs>
    <marker id="flowArrow" markerWidth="9" markerHeight="9" refX="8" refY="4.5" orient="auto">
      <path d="M 0,0 L 9,4.5 L 0,9 Z" fill="#246BFE" />
    </marker>
    <marker id="flowArrowLight" markerWidth="9" markerHeight="9" refX="8" refY="4.5" orient="auto">
      <path d="M 0,0 L 9,4.5 L 0,9 Z" fill="#518FEC" />
    </marker>
  </defs>

  <g id="bg">
    <rect width="1280" height="720" fill="#FFFFFF" />
    <rect x="0" y="0" width="1280" height="6" fill="#0052A6" />
  </g>

  <g id="header">
    <text x="60" y="70" font-family="&quot;Microsoft YaHei&quot;, Arial, sans-serif" font-size="14" font-weight="bold" fill="#518FEC" letter-spacing="2">01 客户理解</text>
    <text x="60" y="115" font-family="&quot;Microsoft YaHei&quot;, Arial, sans-serif" font-size="30" font-weight="bold" fill="#17365D">整体价值闭环 — 从信息发现到结果复盘</text>
    <text x="60" y="148" font-family="&quot;Microsoft YaHei&quot;, Arial, sans-serif" font-size="16" fill="#5E6A78">四大场景串联成完整业务闭环(客户原话),让数据在链路中流动、沉淀、复利</text>
  </g>

  <g id="loop-flow">
    <text x="640" y="200" font-family="&quot;Microsoft YaHei&quot;, Arial, sans-serif" font-size="13" font-weight="bold" fill="#5E6A78" text-anchor="middle" letter-spacing="2">END-TO-END BUSINESS LOOP</text>

    <line x1="190" y1="310" x2="232" y2="310" stroke="#246BFE" stroke-width="2.5" marker-end="url(#flowArrow)" />
    <line x1="362" y1="310" x2="404" y2="310" stroke="#246BFE" stroke-width="2.5" marker-end="url(#flowArrow)" />
    <line x1="534" y1="310" x2="576" y2="310" stroke="#246BFE" stroke-width="2.5" marker-end="url(#flowArrow)" />
    <line x1="706" y1="310" x2="748" y2="310" stroke="#246BFE" stroke-width="2.5" marker-end="url(#flowArrow)" />
    <line x1="878" y1="310" x2="920" y2="310" stroke="#246BFE" stroke-width="2.5" marker-end="url(#flowArrow)" />
    <line x1="1050" y1="310" x2="1092" y2="310" stroke="#246BFE" stroke-width="2.5" marker-end="url(#flowArrow)" />
  </g>

  <g id="step-1">
    <circle cx="125" cy="310" r="62" fill="#246BFE" />
    
  <g transform="translate(105.0, 262.0) scale(1.6666666666666667)" fill="none" stroke="#FFFFFF" stroke-width="2">
    <path d="M3 10a7 7 0 1 0 14 0a7 7 0 1 0 -14 0" />
    <path d="M21 21l-6 -6" />
  </g>
    <text x="125" y="325" font-family="&quot;Microsoft YaHei&quot;, Arial, sans-serif" font-size="14" font-weight="bold" fill="#FFFFFF" text-anchor="middle">信息发现</text>
  </g>
  <g id="step-2">
    <circle cx="297" cy="310" r="62" fill="#246BFE" />
    
  <g transform="translate(277.0, 262.0) scale(1.6666666666666667)" fill="none" stroke="#FFFFFF" stroke-width="2">
    <path d="M11 12a1 1 0 1 0 2 0a1 1 0 1 0 -2 0" />
    <path d="M7 12a5 5 0 1 0 10 0a5 5 0 1 0 -10 0" />
    <path d="M3 12a9 9 0 1 0 18 0a9 9 0 1 0 -18 0" />
  </g>
    <text x="297" y="325" font-family="&quot;Microsoft YaHei&quot;, Arial, sans-serif" font-size="14" font-weight="bold" fill="#FFFFFF" text-anchor="middle">商机识别</text>
  </g>
  <g id="step-3">
    <circle cx="469" cy="310" r="62" fill="#0052A6" />
    
  <g transform="translate(449.0, 262.0) scale(1.6666666666666667)" fill="none" stroke="#FFFFFF" stroke-width="2">
    <path d="M6 9a6 6 0 1 0 12 0a6 6 0 0 0 -12 0" />
    <path d="M12 3c1.333 .333 2 2.333 2 6s-.667 5.667 -2 6" />
    <path d="M12 3c-1.333 .333 -2 2.333 -2 6s.667 5.667 2 6" />
    <path d="M6 9h12" />
    <path d="M3 20h7" />
    <path d="M14 20h7" />
    <path d="M10 20a2 2 0 1 0 4 0a2 2 0 0 0 -4 0" />
    <path d="M12 15v3" />
  </g>
    <text x="469" y="325" font-family="&quot;Microsoft YaHei&quot;, Arial, sans-serif" font-size="14" font-weight="bold" fill="#FFFFFF" text-anchor="middle">客户归并</text>
  </g>
  <g id="step-4">
    <circle cx="641" cy="310" r="62" fill="#0052A6" />
    
  <g transform="translate(621.0, 262.0) scale(1.6666666666666667)" fill="none" stroke="#FFFFFF" stroke-width="2">
    <path d="M8 9h-1a2 2 0 0 0 -2 2v8a2 2 0 0 0 2 2h10a2 2 0 0 0 2 -2v-8a2 2 0 0 0 -2 -2h-1" />
    <path d="M12 14v-11" />
    <path d="M9 6l3 -3l3 3" />
  </g>
    <text x="641" y="322" font-family="&quot;Microsoft YaHei&quot;, Arial, sans-serif" font-size="13" font-weight="bold" fill="#FFFFFF" text-anchor="middle">决策链分析</text>
  </g>
  <g id="step-5">
    <circle cx="813" cy="310" r="62" fill="#246BFE" />
    
  <g transform="translate(793.0, 262.0) scale(1.6666666666666667)" fill="none" stroke="#FFFFFF" stroke-width="2">
    <path d="M4 14v-3a8 8 0 1 1 16 0v3" />
    <path d="M18 19c0 1.657 -2.686 3 -6 3" />
    <path d="M4 14a2 2 0 0 1 2 -2h1a2 2 0 0 1 2 2v3a2 2 0 0 1 -2 2h-1a2 2 0 0 1 -2 -2v-3" />
    <path d="M15 14a2 2 0 0 1 2 -2h1a2 2 0 0 1 2 2v3a2 2 0 0 1 -2 2h-1a2 2 0 0 1 -2 -2v-3" />
  </g>
    <text x="813" y="325" font-family="&quot;Microsoft YaHei&quot;, Arial, sans-serif" font-size="14" font-weight="bold" fill="#FFFFFF" text-anchor="middle">销售跟进</text>
  </g>
  <g id="step-6">
    <circle cx="985" cy="310" r="62" fill="#246BFE" />
    
  <g transform="translate(965.0, 262.0) scale(1.6666666666666667)" fill="none" stroke="#FFFFFF" stroke-width="2">
    <path d="M14 3v4a1 1 0 0 0 1 1h4" />
    <path d="M17 21h-10a2 2 0 0 1 -2 -2v-14a2 2 0 0 1 2 -2h7l5 5v11a2 2 0 0 1 -2 2" />
    <path d="M9 9l1 0" />
    <path d="M9 13l6 0" />
    <path d="M9 17l6 0" />
  </g>
    <text x="985" y="325" font-family="&quot;Microsoft YaHei&quot;, Arial, sans-serif" font-size="14" font-weight="bold" fill="#FFFFFF" text-anchor="middle">投标支持</text>
  </g>
  <g id="step-7">
    <circle cx="1157" cy="310" r="62" fill="#0E9F6E" />
    
  <g transform="translate(1137.0, 262.0) scale(1.6666666666666667)" fill="none" stroke="#FFFFFF" stroke-width="2">
    <path d="M20 11a8.1 8.1 0 0 0 -15.5 -2m-.5 -4v4h4" />
    <path d="M4 13a8.1 8.1 0 0 0 15.5 2m.5 4v-4h-4" />
  </g>
    <text x="1157" y="325" font-family="&quot;Microsoft YaHei&quot;, Arial, sans-serif" font-size="14" font-weight="bold" fill="#FFFFFF" text-anchor="middle">结果复盘</text>
  </g>

  <path d="M 1157 372 Q 1157 430 1000 430 Q 640 430 280 430 Q 125 430 125 372" fill="none" stroke="#518FEC" stroke-width="2" stroke-dasharray="6 4" marker-end="url(#flowArrowLight)" />
  <text x="641" y="455" font-family="&quot;Microsoft YaHei&quot;, Arial, sans-serif" font-size="13" font-weight="bold" fill="#518FEC" text-anchor="middle">复盘结论回流 → 持续优化下一轮商机识别与跟进</text>

  <g id="tech-pillars">
    <path fill="#F4F7FC" d="M72,500 H1208 A12,12 0 0 1 1220,512 V628 A12,12 0 0 1 1208,640 H72 A12,12 0 0 1 60,628 V512 A12,12 0 0 1 72,500 Z" />
    <text x="90" y="535" font-family="&quot;Microsoft YaHei&quot;, Arial, sans-serif" font-size="14" font-weight="bold" fill="#17365D">闭环背后的 8 项关键技术能力</text>
    <line x1="90" y1="548" x2="280" y2="548" stroke="#246BFE" stroke-width="2" />

    
  <g transform="translate(90.0, 567.0) scale(0.9166666666666666)" fill="none" stroke="#246BFE" stroke-width="2">
    <path d="M6 9a6 6 0 1 0 12 0a6 6 0 0 0 -12 0" />
    <path d="M12 3c1.333 .333 2 2.333 2 6s-.667 5.667 -2 6" />
    <path d="M12 3c-1.333 .333 -2 2.333 -2 6s.667 5.667 2 6" />
    <path d="M6 9h12" />
    <path d="M3 20h7" />
    <path d="M14 20h7" />
    <path d="M10 20a2 2 0 1 0 4 0a2 2 0 0 0 -4 0" />
    <path d="M12 15v3" />
  </g>
    <text x="120" y="584" font-family="&quot;Microsoft YaHei&quot;, Arial, sans-serif" font-size="14" fill="#25364A">多平台数据接入</text>

    
  <g transform="translate(290.0, 567.0) scale(0.9166666666666666)" fill="none" stroke="#246BFE" stroke-width="2">
    <path d="M4 14v-3a8 8 0 1 1 16 0v3" />
    <path d="M18 19c0 1.657 -2.686 3 -6 3" />
    <path d="M4 14a2 2 0 0 1 2 -2h1a2 2 0 0 1 2 2v3a2 2 0 0 1 -2 2h-1a2 2 0 0 1 -2 -2v-3" />
    <path d="M15 14a2 2 0 0 1 2 -2h1a2 2 0 0 1 2 2v3a2 2 0 0 1 -2 2h-1a2 2 0 0 1 -2 -2v-3" />
  </g>
    <text x="320" y="584" font-family="&quot;Microsoft YaHei&quot;, Arial, sans-serif" font-size="14" fill="#25364A">音视频内容解析</text>

    
  <g transform="translate(490.0, 567.0) scale(0.9166666666666666)" fill="none" stroke="#246BFE" stroke-width="2">
    <path d="M5 7a4 4 0 1 0 8 0a4 4 0 1 0 -8 0" />
    <path d="M3 21v-2a4 4 0 0 1 4 -4h4a4 4 0 0 1 4 4v2" />
    <path d="M16 3.13a4 4 0 0 1 0 7.75" />
    <path d="M21 21v-2a4 4 0 0 0 -3 -3.85" />
  </g>
    <text x="520" y="584" font-family="&quot;Microsoft YaHei&quot;, Arial, sans-serif" font-size="14" fill="#25364A">客户主体识别</text>

    
  <g transform="translate(690.0, 567.0) scale(0.9166666666666666)" fill="none" stroke="#246BFE" stroke-width="2">
    <path d="M20 11a8.1 8.1 0 0 0 -15.5 -2m-.5 -4v4h4" />
    <path d="M4 13a8.1 8.1 0 0 0 15.5 2m.5 4v-4h-4" />
  </g>
    <text x="720" y="584" font-family="&quot;Microsoft YaHei&quot;, Arial, sans-serif" font-size="14" fill="#25364A">重复信息合并</text>

    
  <g transform="translate(90.0, 607.0) scale(0.9166666666666666)" fill="none" stroke="#246BFE" stroke-width="2">
    <path d="M8 9h-1a2 2 0 0 0 -2 2v8a2 2 0 0 0 2 2h10a2 2 0 0 0 2 -2v-8a2 2 0 0 0 -2 -2h-1" />
    <path d="M12 14v-11" />
    <path d="M9 6l3 -3l3 3" />
  </g>
    <text x="120" y="624" font-family="&quot;Microsoft YaHei&quot;, Arial, sans-serif" font-size="14" fill="#25364A">人物关系分析</text>

    
  <g transform="translate(290.0, 607.0) scale(0.9166666666666666)" fill="none" stroke="#246BFE" stroke-width="2">
    <path d="M11 12a1 1 0 1 0 2 0a1 1 0 1 0 -2 0" />
    <path d="M7 12a5 5 0 1 0 10 0a5 5 0 1 0 -10 0" />
    <path d="M3 12a9 9 0 1 0 18 0a9 9 0 1 0 -18 0" />
  </g>
    <text x="320" y="624" font-family="&quot;Microsoft YaHei&quot;, Arial, sans-serif" font-size="14" fill="#25364A">商机评分</text>

    
  <g transform="translate(490.0, 607.0) scale(0.9166666666666666)" fill="none" stroke="#246BFE" stroke-width="2">
    <path d="M9 5a3 3 0 0 1 3 -3a3 3 0 0 1 3 3v5a3 3 0 0 1 -3 3a3 3 0 0 1 -3 -3l0 -5" />
    <path d="M5 10a7 7 0 0 0 14 0" />
    <path d="M8 21l8 0" />
    <path d="M12 17l0 4" />
  </g>
    <text x="520" y="624" font-family="&quot;Microsoft YaHei&quot;, Arial, sans-serif" font-size="14" fill="#25364A">录音分析</text>

    
  <g transform="translate(690.0, 607.0) scale(0.9166666666666666)" fill="none" stroke="#246BFE" stroke-width="2">
    <path d="M3 9a2 2 0 0 1 2 -2h14a2 2 0 0 1 2 2v9a2 2 0 0 1 -2 2h-14a2 2 0 0 1 -2 -2l0 -9" />
    <path d="M8 7v-2a2 2 0 0 1 2 -2h4a2 2 0 0 1 2 2v2" />
    <path d="M12 12l0 .01" />
    <path d="M3 13a20 20 0 0 0 18 0" />
  </g>
    <text x="720" y="624" font-family="&quot;Microsoft YaHei&quot;, Arial, sans-serif" font-size="14" fill="#25364A">CRM/招聘/投标系统集成</text>
  </g>

  <g id="footer">
    <text x="60" y="700" font-family="&quot;Microsoft YaHei&quot;, Arial, sans-serif" font-size="11" fill="#6B7785">©法本信息版权所有</text>
    <text x="1220" y="700" font-family="&quot;Microsoft YaHei&quot;, Arial, sans-serif" font-size="11" fill="#6B7785" text-anchor="end">06</text>
  </g>
</svg>