<svg xmlns="http://www.w3.org/2000/svg" viewBox="0 0 1280 720" width="1280" height="720">
  <defs>
    <marker id="parseArrow" markerWidth="9" markerHeight="9" refX="8" refY="4.5" orient="auto">
      <path d="M 0,0 L 9,4.5 L 0,9 Z" fill="#246BFE" />
    </marker>
  </defs>

  <g id="bg">
    <rect width="1280" height="720" fill="#FFFFFF" />
    <rect x="0" y="0" width="1280" height="6" fill="#0052A6" />
  </g>

  <g id="header">
    <text x="60" y="70" font-family="&quot;Microsoft YaHei&quot;, Arial, sans-serif" font-size="14" font-weight="bold" fill="#518FEC" letter-spacing="2">03 场景方案 · 商机</text>
    <text x="60" y="115" font-family="&quot;Microsoft YaHei&quot;, Arial, sans-serif" font-size="30" font-weight="bold" fill="#17365D">智能商机 — 解析 · 评分 · 分配</text>
    <text x="60" y="148" font-family="&quot;Microsoft YaHei&quot;, Arial, sans-serif" font-size="16" fill="#5E6A78">非结构化内容自动解析为结构化商机线索,按价值评分后秒级分配对应商务</text>
  </g>

  <g id="parse-flow">
    <text x="60" y="190" font-family="&quot;Microsoft YaHei&quot;, Arial, sans-serif" font-size="14" font-weight="bold" fill="#246BFE" letter-spacing="1">智能解析流水线 · PARSING PIPELINE</text>

    <path fill="#F4F7FC" d="M70,210 H750 A10,10 0 0 1 760,220 V280 A10,10 0 0 1 750,290 H70 A10,10 0 0 1 60,280 V220 A10,10 0 0 1 70,210 Z" />
    
  <g transform="translate(80.0, 232.0) scale(1.5)" fill="none" stroke="#246BFE" stroke-width="2">
    <path d="M14 3v4a1 1 0 0 0 1 1h4" />
    <path d="M17 21h-10a2 2 0 0 1 -2 -2v-14a2 2 0 0 1 2 -2h7l5 5v11a2 2 0 0 1 -2 2" />
    <path d="M9 9l1 0" />
    <path d="M9 13l6 0" />
    <path d="M9 17l6 0" />
  </g>
    <text x="130" y="240" font-family="&quot;Microsoft YaHei&quot;, Arial, sans-serif" font-size="13" font-weight="bold" fill="#246BFE">STEP 1 · 内容采集</text>
    <text x="130" y="266" font-family="&quot;Microsoft YaHei&quot;, Arial, sans-serif" font-size="15" fill="#25364A">网页 / 文档 / 图片 / 音视频等非结构化内容采集</text>

    <line x1="410" y1="295" x2="410" y2="320" stroke="#246BFE" stroke-width="2.5" marker-end="url(#parseArrow)" />

    <path fill="#F4F7FC" d="M70,325 H750 A10,10 0 0 1 760,335 V395 A10,10 0 0 1 750,405 H70 A10,10 0 0 1 60,395 V335 A10,10 0 0 1 70,325 Z" />
    
  <g transform="translate(80.0, 347.0) scale(1.5)" fill="none" stroke="#0052A6" stroke-width="2">
    <path d="M3 10a7 7 0 1 0 14 0a7 7 0 1 0 -14 0" />
    <path d="M21 21l-6 -6" />
  </g>
    <text x="130" y="355" font-family="&quot;Microsoft YaHei&quot;, Arial, sans-serif" font-size="13" font-weight="bold" fill="#0052A6">STEP 2 · 字段提取</text>
    <text x="130" y="381" font-family="&quot;Microsoft YaHei&quot;, Arial, sans-serif" font-size="15" fill="#25364A">智能解析提取 10 大关键字段(见右侧)</text>

    <line x1="410" y1="410" x2="410" y2="435" stroke="#246BFE" stroke-width="2.5" marker-end="url(#parseArrow)" />

    <path fill="#F4F7FC" d="M70,440 H750 A10,10 0 0 1 760,450 V510 A10,10 0 0 1 750,520 H70 A10,10 0 0 1 60,510 V450 A10,10 0 0 1 70,440 Z" />
    
  <g transform="translate(80.0, 462.0) scale(1.5)" fill="none" stroke="#F59E0B" stroke-width="2">
    <path d="M11 12a1 1 0 1 0 2 0a1 1 0 1 0 -2 0" />
    <path d="M7 12a5 5 0 1 0 10 0a5 5 0 1 0 -10 0" />
    <path d="M3 12a9 9 0 1 0 18 0a9 9 0 1 0 -18 0" />
  </g>
    <text x="130" y="470" font-family="&quot;Microsoft YaHei&quot;, Arial, sans-serif" font-size="13" font-weight="bold" fill="#F59E0B">STEP 3 · 价值评分</text>
    <text x="130" y="496" font-family="&quot;Microsoft YaHei&quot;, Arial, sans-serif" font-size="15" fill="#25364A">按客户规则判断商机价值 → 优先级排序 → 自动去重</text>

    <line x1="410" y1="525" x2="410" y2="550" stroke="#246BFE" stroke-width="2.5" marker-end="url(#parseArrow)" />

    <path fill="#0E9F6E" d="M70,555 H750 A10,10 0 0 1 760,565 V625 A10,10 0 0 1 750,635 H70 A10,10 0 0 1 60,625 V565 A10,10 0 0 1 70,555 Z" />
    
  <g transform="translate(80.0, 577.0) scale(1.5)" fill="none" stroke="#FFFFFF" stroke-width="2">
    <path d="M5 7a4 4 0 1 0 8 0a4 4 0 1 0 -8 0" />
    <path d="M3 21v-2a4 4 0 0 1 4 -4h4a4 4 0 0 1 4 4v2" />
    <path d="M16 3.13a4 4 0 0 1 0 7.75" />
    <path d="M21 21v-2a4 4 0 0 0 -3 -3.85" />
  </g>
    <text x="130" y="585" font-family="&quot;Microsoft YaHei&quot;, Arial, sans-serif" font-size="13" font-weight="bold" fill="#FFFFFF">STEP 4 · 自动分配</text>
    <text x="130" y="611" font-family="&quot;Microsoft YaHei&quot;, Arial, sans-serif" font-size="15" fill="#FFFFFF">结构化线索自动推送对应商务 → 记录来源/跟进/转化</text>
  </g>

  <g id="fields">
    <path fill="#17365D" d="M792,210 H1208 A12,12 0 0 1 1220,222 V623 A12,12 0 0 1 1208,635 H792 A12,12 0 0 1 780,623 V222 A12,12 0 0 1 792,210 Z" />
    <text x="800" y="245" font-family="&quot;Microsoft YaHei&quot;, Arial, sans-serif" font-size="13" font-weight="bold" fill="#518FEC" letter-spacing="1">提取的 10 大关键字段</text>
    <line x1="800" y1="258" x2="960" y2="258" stroke="#518FEC" stroke-width="2" />

    <circle cx="810" cy="295" r="3" fill="#518FEC" />
    <text x="824" y="300" font-family="&quot;Microsoft YaHei&quot;, Arial, sans-serif" font-size="15" fill="#FFFFFF">项目名称</text>
    <circle cx="1010" cy="295" r="3" fill="#518FEC" />
    <text x="1024" y="300" font-family="&quot;Microsoft YaHei&quot;, Arial, sans-serif" font-size="15" fill="#FFFFFF">项目地址</text>

    <circle cx="810" cy="335" r="3" fill="#518FEC" />
    <text x="824" y="340" font-family="&quot;Microsoft YaHei&quot;, Arial, sans-serif" font-size="15" fill="#FFFFFF">建筑面积</text>
    <circle cx="1010" cy="335" r="3" fill="#518FEC" />
    <text x="1024" y="340" font-family="&quot;Microsoft YaHei&quot;, Arial, sans-serif" font-size="15" fill="#FFFFFF">建设进度</text>

    <circle cx="810" cy="375" r="3" fill="#518FEC" />
    <text x="824" y="380" font-family="&quot;Microsoft YaHei&quot;, Arial, sans-serif" font-size="15" fill="#FFFFFF">业主单位</text>
    <circle cx="1010" cy="375" r="3" fill="#518FEC" />
    <text x="1024" y="380" font-family="&quot;Microsoft YaHei&quot;, Arial, sans-serif" font-size="15" fill="#FFFFFF">投资方</text>

    <circle cx="810" cy="415" r="3" fill="#518FEC" />
    <text x="824" y="420" font-family="&quot;Microsoft YaHei&quot;, Arial, sans-serif" font-size="15" fill="#FFFFFF">交易方</text>
    <circle cx="1010" cy="415" r="3" fill="#518FEC" />
    <text x="1024" y="420" font-family="&quot;Microsoft YaHei&quot;, Arial, sans-serif" font-size="15" fill="#FFFFFF">联系人</text>

    <circle cx="810" cy="455" r="3" fill="#518FEC" />
    <text x="824" y="460" font-family="&quot;Microsoft YaHei&quot;, Arial, sans-serif" font-size="15" fill="#FFFFFF">预算</text>
    <circle cx="1010" cy="455" r="3" fill="#518FEC" />
    <text x="1024" y="460" font-family="&quot;Microsoft YaHei&quot;, Arial, sans-serif" font-size="15" fill="#FFFFFF">招标时间</text>

    <line x1="800" y1="495" x2="1200" y2="495" stroke="#518FEC" stroke-width="1" stroke-opacity="0.3" />
    
  <g transform="translate(800.0, 515.0) scale(1.1666666666666667)" fill="none" stroke="#F59E0B" stroke-width="2">
    <path d="M3 12h1m8 -9v1m8 8h1m-15.4 -6.4l.7 .7m12.1 -.7l-.7 .7" />
    <path d="M9 16a5 5 0 1 1 6 0a3.5 3.5 0 0 0 -1 3a2 2 0 0 1 -4 0a3.5 3.5 0 0 0 -1 -3" />
    <path d="M9.7 17l4.6 0" />
  </g>
    <text x="838" y="535" font-family="&quot;Microsoft YaHei&quot;, Arial, sans-serif" font-size="14" font-weight="bold" fill="#F59E0B">价值(预估)</text>
    <text x="800" y="570" font-family="&quot;Microsoft YaHei&quot;, Arial, sans-serif" font-size="14" fill="#B8C7E0">商机发现时效 <tspan font-weight="bold" fill="#FFFFFF">天级→小时级</tspan></text>
    <text x="800" y="598" font-family="&quot;Microsoft YaHei&quot;, Arial, sans-serif" font-size="14" fill="#B8C7E0">商机覆盖率 <tspan font-weight="bold" fill="#FFFFFF">↑3 倍</tspan></text>
    <text x="800" y="626" font-family="&quot;Microsoft YaHei&quot;, Arial, sans-serif" font-size="14" fill="#B8C7E0">重复信息 <tspan font-weight="bold" fill="#FFFFFF">自动去重</tspan></text>
  </g>

  <g id="footer">
    <text x="60" y="700" font-family="&quot;Microsoft YaHei&quot;, Arial, sans-serif" font-size="11" fill="#6B7785">©法本信息版权所有</text>
    <text x="1220" y="700" font-family="&quot;Microsoft YaHei&quot;, Arial, sans-serif" font-size="11" fill="#6B7785" text-anchor="end">14</text>
  </g>
</svg>